<svg width="12" height="7" viewBox="0 0 12 7" fill="none" xmlns="http://www.w3.org/2000/svg">
<path d="M5.99503 7.00209C5.88786 7.00209 5.7882 6.98284 5.69603 6.94434C5.60386 6.90584 5.51928 6.84817 5.44228 6.77134L0.80653 2.13533C0.66253 1.99133 0.59303 1.83534 0.59803 1.66734C0.603197 1.4995 0.678197 1.34309 0.82303 1.19809C0.96803 1.05325 1.12286 0.980835 1.28753 0.980835C1.4522 0.980835 1.60703 1.05325 1.75203 1.19809L6.00003 5.47134L10.273 1.19809C10.4115 1.05975 10.5648 0.993085 10.7328 0.998085C10.9006 1.00325 11.057 1.07825 11.202 1.22309C11.3469 1.36809 11.4193 1.52292 11.4193 1.68759C11.4193 1.85225 11.344 2.00942 11.1935 2.15909L6.55778 6.77134C6.47411 6.84817 6.3862 6.90584 6.29403 6.94434C6.20186 6.98284 6.1022 7.00209 5.99503 7.00209Z" fill="#F9F6E3"/>
</svg>
