<svg width="8" height="6" viewBox="0 0 8 6" fill="none" xmlns="http://www.w3.org/2000/svg">
<path d="M3.99909 2.29989L1.26576 5.03322C1.14353 5.15544 1.00187 5.21655 0.840755 5.21655C0.679644 5.21655 0.537977 5.15544 0.415755 5.03322C0.293533 4.911 0.232422 4.76933 0.232422 4.60822C0.232422 4.44711 0.295422 4.30355 0.421422 4.17755L3.58242 1.01655C3.64242 0.960998 3.70742 0.919331 3.77742 0.891553C3.84742 0.863775 3.92242 0.849886 4.00242 0.849886C4.08242 0.849886 4.15742 0.863775 4.22742 0.891553C4.29742 0.919331 4.3602 0.960998 4.41576 1.01655L7.57676 4.17755C7.70276 4.30355 7.76298 4.44433 7.75742 4.59989C7.75187 4.75544 7.68798 4.89433 7.56576 5.01655C7.44353 5.13878 7.30187 5.19989 7.14076 5.19989C6.97964 5.19989 6.83798 5.13878 6.71576 5.01655L3.99909 2.29989Z" fill="#023524"/>
</svg>
