<svg width="8" height="6" viewBox="0 0 8 6" fill="none" xmlns="http://www.w3.org/2000/svg">
<path d="M4.00091 3.70011L6.73424 0.966781C6.85647 0.844558 6.99813 0.783447 7.15924 0.783447C7.32036 0.783447 7.46202 0.844558 7.58424 0.966781C7.70647 1.089 7.76758 1.23067 7.76758 1.39178C7.76758 1.55289 7.70458 1.69645 7.57858 1.82245L4.41758 4.98345C4.35758 5.039 4.29258 5.08067 4.22258 5.10845C4.15258 5.13623 4.07758 5.15011 3.99758 5.15011C3.91758 5.15011 3.84258 5.13623 3.77258 5.10845C3.70258 5.08067 3.6398 5.039 3.58424 4.98345L0.423244 1.82245C0.297245 1.69645 0.237022 1.55567 0.242578 1.40011C0.248134 1.24456 0.312022 1.10567 0.434245 0.983447C0.556467 0.861225 0.698133 0.800114 0.859244 0.800114C1.02036 0.800114 1.16202 0.861225 1.28424 0.983447L4.00091 3.70011Z" fill="#023524"/>
</svg>
