<svg width="9" height="17" viewBox="0 0 9 17" fill="none" xmlns="http://www.w3.org/2000/svg">
<path fill-rule="evenodd" clip-rule="evenodd" d="M2.48583 16.2084V8.81844H0V5.93844H2.48583V3.81844C2.43585 3.31519 2.49632 2.8071 2.663 2.32964C2.82969 1.85218 3.09858 1.41685 3.4509 1.05405C3.80322 0.691257 4.23049 0.409732 4.70286 0.229134C5.17524 0.0485355 5.68134 -0.0267824 6.18583 0.008438C6.9284 0.00405705 7.67056 0.0441286 8.40833 0.128438V2.69844H6.88333C6.6897 2.65737 6.48892 2.66483 6.29887 2.72016C6.10883 2.7755 5.93542 2.87698 5.7941 3.01558C5.65278 3.15418 5.54794 3.32558 5.48892 3.51451C5.4299 3.70344 5.41854 3.90405 5.45583 4.09844V5.93844H8.30833L7.93583 8.81844H5.46083V16.2084H2.48583Z" fill="#023524"/>
</svg>
