<svg width="12" height="7" viewBox="0 0 12 7" fill="none" xmlns="http://www.w3.org/2000/svg">
<path d="M5.99503 7.00221C5.88786 7.00221 5.7882 6.98296 5.69603 6.94446C5.60386 6.90596 5.51928 6.84829 5.44228 6.77146L0.80653 2.13546C0.66253 1.99146 0.59303 1.83546 0.59803 1.66746C0.603197 1.49962 0.678197 1.34321 0.82303 1.19821C0.96803 1.05337 1.12286 0.980957 1.28753 0.980957C1.4522 0.980957 1.60703 1.05337 1.75203 1.19821L6.00003 5.47146L10.273 1.19821C10.4115 1.05987 10.5648 0.993207 10.7328 0.998207C10.9006 1.00337 11.057 1.07837 11.202 1.22321C11.3469 1.36821 11.4193 1.52304 11.4193 1.68771C11.4193 1.85237 11.344 2.00954 11.1935 2.15921L6.55778 6.77146C6.47411 6.84829 6.3862 6.90596 6.29403 6.94446C6.20186 6.98296 6.1022 7.00221 5.99503 7.00221Z" fill="#808080"/>
</svg>
