<svg width="16" height="16" viewBox="0 0 16 16" fill="none" xmlns="http://www.w3.org/2000/svg">
<path fill-rule="evenodd" clip-rule="evenodd" d="M8 0C5.8275 0 5.555 0.00916654 4.70167 0.0483332C3.85 0.0866665 3.26833 0.2225 2.76 0.42C2.22631 0.620826 1.74286 0.935643 1.34333 1.3425C0.936196 1.74196 0.621094 2.22542 0.42 2.75917C0.2225 3.26833 0.0866665 3.85083 0.0483332 4.70167C0.00833321 5.555 0 5.82667 0 8C0 10.1725 0.00916654 10.445 0.0483332 11.2983C0.0866665 12.15 0.2225 12.7317 0.42 13.24C0.62085 13.7737 0.935664 14.2571 1.3425 14.6567C1.7875 15.1025 2.23417 15.3758 2.75917 15.58C3.26833 15.7775 3.85 15.9133 4.70083 15.9517C5.555 15.9908 5.8275 16 8 16C10.1725 16 10.445 15.9908 11.2983 15.9517C12.15 15.9133 12.7317 15.7775 13.24 15.58C13.7737 15.3792 14.2571 15.0643 14.6567 14.6575C15.0638 14.258 15.3789 13.7746 15.58 13.2408C15.7775 12.7317 15.9133 12.1492 15.9517 11.2992C15.9908 10.445 16 10.1725 16 8C16 5.8275 15.9908 5.555 15.9517 4.70167C15.9125 3.85 15.7775 3.26833 15.58 2.76C15.3792 2.22633 15.0643 1.74287 14.6575 1.34333C14.2581 0.936176 13.7746 0.62107 13.2408 0.42C12.7317 0.2225 12.1492 0.0866665 11.2983 0.0483332C10.445 0.00833321 10.1733 0 8 0ZM8 1.44167C10.1358 1.44167 10.3892 1.45 11.2333 1.48833C12.0125 1.52333 12.4358 1.65417 12.7183 1.76333C13.0917 1.90833 13.3583 2.08167 13.6383 2.36167C13.9183 2.64167 14.0917 2.90833 14.2367 3.28167C14.3458 3.56333 14.4758 3.9875 14.5117 4.7675C14.55 5.61083 14.5583 5.86417 14.5583 8C14.5583 10.1358 14.55 10.3892 14.5117 11.2333C14.4758 12.0125 14.3458 12.4367 14.2367 12.7183C14.1082 13.0659 13.9035 13.3803 13.6375 13.6383C13.3796 13.9039 13.0656 14.1084 12.7183 14.2367C12.4358 14.3458 12.0125 14.4767 11.2325 14.5117C10.3892 14.55 10.1358 14.5583 7.99917 14.5583C5.86333 14.5583 5.61083 14.55 4.7675 14.5117C3.9875 14.4767 3.56333 14.3458 3.28167 14.2367C2.93414 14.1085 2.61977 13.904 2.36167 13.6383C2.09598 13.3802 1.89152 13.0659 1.76333 12.7183C1.65417 12.4367 1.52333 12.0125 1.48833 11.2325C1.44917 10.3892 1.44167 10.1358 1.44167 8C1.44167 5.86417 1.45 5.61083 1.48833 4.76667C1.52333 3.9875 1.65417 3.56417 1.76333 3.28167C1.90833 2.90833 2.08167 2.64167 2.36167 2.36167C2.61977 2.09598 2.93414 1.89152 3.28167 1.76333C3.56333 1.65417 3.9875 1.52333 4.7675 1.48833C5.61083 1.45 5.86417 1.44167 8 1.44167ZM8 10.6667C7.29276 10.6667 6.61448 10.3857 6.11438 9.88562C5.61428 9.38552 5.33333 8.70724 5.33333 8C5.33333 7.29276 5.61428 6.61448 6.11438 6.11438C6.61448 5.61428 7.29276 5.33333 8 5.33333C8.70724 5.33333 9.38552 5.61428 9.88562 6.11438C10.3857 6.61448 10.6667 7.29276 10.6667 8C10.6667 8.70724 10.3857 9.38552 9.88562 9.88562C9.38552 10.3857 8.70724 10.6667 8 10.6667ZM8 3.89167C7.46049 3.89167 6.92625 3.99793 6.42781 4.20439C5.92936 4.41086 5.47646 4.71348 5.09497 5.09497C4.71348 5.47646 4.41086 5.92936 4.20439 6.42781C3.99793 6.92625 3.89167 7.46049 3.89167 8C3.89167 8.53951 3.99793 9.07374 4.20439 9.57219C4.41086 10.0706 4.71348 10.5235 5.09497 10.905C5.47646 11.2865 5.92936 11.5891 6.42781 11.7956C6.92625 12.0021 7.46049 12.1083 8 12.1083C9.0896 12.1083 10.1346 11.6755 10.905 10.905C11.6755 10.1346 12.1083 9.0896 12.1083 8C12.1083 6.9104 11.6755 5.86543 10.905 5.09497C10.1346 4.32451 9.0896 3.89167 8 3.89167ZM13.23 3.73C13.23 3.98461 13.1289 4.22879 12.9488 4.40882C12.7688 4.58886 12.5246 4.69 12.27 4.69C12.0154 4.69 11.7712 4.58886 11.5912 4.40882C11.4111 4.22879 11.31 3.98461 11.31 3.73C11.31 3.47539 11.4111 3.23121 11.5912 3.05118C11.7712 2.87114 12.0154 2.77 12.27 2.77C12.5246 2.77 12.7688 2.87114 12.9488 3.05118C13.1289 3.23121 13.23 3.47539 13.23 3.73Z" fill="#023524"/>
</svg>
