<svg width="162" height="19" viewBox="0 0 162 19" fill="none" xmlns="http://www.w3.org/2000/svg">
<g filter="url(#filter0_i_7_3105)">
<path d="M15.7802 1.008V1.488C15.4762 1.552 15.1482 1.736 14.7962 2.04C14.4602 2.344 14.1562 2.856 13.8842 3.576L8.24419 18.12C8.21219 18.12 8.18019 18.12 8.14819 18.12C8.11619 18.12 8.08419 18.12 8.05219 18.12C8.02019 18.12 7.98819 18.12 7.95619 18.12C7.92419 18.12 7.89219 18.12 7.86019 18.12L2.00419 3.024C1.76419 2.416 1.49219 2.016 1.18819 1.824C0.884188 1.616 0.604188 1.504 0.348187 1.488V1.008C0.668188 1.024 1.06019 1.04 1.52419 1.056C2.00419 1.072 2.46819 1.08 2.91619 1.08C3.54019 1.08 4.12419 1.072 4.66819 1.056C5.21219 1.04 5.65219 1.024 5.98819 1.008V1.488C5.44419 1.504 5.02819 1.568 4.74019 1.68C4.46819 1.792 4.31619 1.992 4.28419 2.28C4.26819 2.552 4.36419 2.96 4.57219 3.504L9.03619 15.336L8.65219 15.744L12.8282 4.896C13.1642 4.032 13.3242 3.36 13.3082 2.88C13.2922 2.384 13.1082 2.032 12.7562 1.824C12.4042 1.616 11.8922 1.504 11.2202 1.488V1.008C11.6842 1.024 12.1562 1.04 12.6362 1.056C13.1162 1.072 13.5642 1.08 13.9802 1.08C14.3962 1.08 14.7402 1.072 15.0122 1.056C15.2842 1.04 15.5402 1.024 15.7802 1.008ZM24.7374 1.008V1.488C24.1934 1.504 23.7774 1.568 23.4894 1.68C23.2174 1.776 23.0334 1.968 22.9374 2.256C22.8414 2.528 22.7934 2.96 22.7934 3.552V15.456C22.7934 16.032 22.8414 16.464 22.9374 16.752C23.0334 17.04 23.2174 17.232 23.4894 17.328C23.7774 17.408 24.1934 17.448 24.7374 17.448H26.4894C27.2414 17.448 27.8494 17.368 28.3134 17.208C28.7934 17.048 29.1694 16.8 29.4414 16.464C29.7294 16.112 29.9454 15.648 30.0894 15.072C30.2334 14.496 30.3454 13.792 30.4254 12.96H30.9774C30.9294 13.456 30.9054 14.112 30.9054 14.928C30.9054 15.232 30.9134 15.672 30.9294 16.248C30.9614 16.808 31.0094 17.392 31.0734 18C30.2574 17.968 29.3374 17.952 28.3134 17.952C27.2894 17.936 26.3774 17.928 25.5774 17.928C25.2254 17.928 24.7694 17.928 24.2094 17.928C23.6654 17.928 23.0734 17.936 22.4334 17.952C21.7934 17.952 21.1454 17.96 20.4894 17.976C19.8334 17.976 19.2094 17.984 18.6174 18V17.52C19.1614 17.488 19.5694 17.424 19.8414 17.328C20.1294 17.232 20.3214 17.04 20.4174 16.752C20.5134 16.464 20.5614 16.032 20.5614 15.456V3.552C20.5614 2.96 20.5134 2.528 20.4174 2.256C20.3214 1.968 20.1294 1.776 19.8414 1.68C19.5694 1.568 19.1614 1.504 18.6174 1.488V1.008C18.9534 1.024 19.3934 1.04 19.9374 1.056C20.4814 1.072 21.0654 1.08 21.6894 1.08C22.2494 1.08 22.8014 1.072 23.3454 1.056C23.9054 1.04 24.3694 1.024 24.7374 1.008ZM41.4708 0.887999L47.3268 15.984C47.5668 16.592 47.8388 17 48.1428 17.208C48.4468 17.4 48.7268 17.504 48.9828 17.52V18C48.6628 17.968 48.2708 17.952 47.8068 17.952C47.3428 17.936 46.8788 17.928 46.4148 17.928C45.7908 17.928 45.2068 17.936 44.6628 17.952C44.1188 17.952 43.6788 17.968 43.3428 18V17.52C44.1588 17.488 44.6788 17.352 44.9028 17.112C45.1268 16.856 45.0788 16.32 44.7588 15.504L40.2948 3.576L40.6788 3.264L36.5028 14.112C36.2468 14.752 36.0948 15.296 36.0468 15.744C35.9988 16.176 36.0388 16.52 36.1668 16.776C36.3108 17.032 36.5428 17.216 36.8628 17.328C37.1988 17.44 37.6148 17.504 38.1108 17.52V18C37.6628 17.968 37.1908 17.952 36.6948 17.952C36.2148 17.936 35.7668 17.928 35.3508 17.928C34.9508 17.928 34.6068 17.936 34.3188 17.952C34.0468 17.952 33.7908 17.968 33.5507 18V17.52C33.8708 17.44 34.1988 17.256 34.5348 16.968C34.8708 16.664 35.1748 16.152 35.4468 15.432L41.0868 0.887999C41.1508 0.887999 41.2148 0.887999 41.2788 0.887999C41.3428 0.887999 41.4068 0.887999 41.4708 0.887999ZM44.3988 11.088V11.568H37.2467L37.4868 11.088H44.3988ZM57.9272 1.008C60.7912 1.008 62.9192 1.728 64.3112 3.168C65.7032 4.592 66.3992 6.64 66.3992 9.312C66.3992 11.056 66.0552 12.584 65.3672 13.896C64.6952 15.192 63.7112 16.2 62.4152 16.92C61.1192 17.64 59.5512 18 57.7112 18C57.4712 18 57.1512 17.992 56.7512 17.976C56.3512 17.96 55.9352 17.952 55.5032 17.952C55.0872 17.936 54.7032 17.928 54.3512 17.928C53.7912 17.928 53.2392 17.936 52.6952 17.952C52.1512 17.952 51.7112 17.968 51.3752 18V17.52C51.9192 17.488 52.3272 17.424 52.5992 17.328C52.8872 17.232 53.0792 17.04 53.1752 16.752C53.2712 16.464 53.3192 16.032 53.3192 15.456V3.552C53.3192 2.96 53.2712 2.528 53.1752 2.256C53.0792 1.968 52.8872 1.776 52.5992 1.68C52.3272 1.568 51.9192 1.504 51.3752 1.488V1.008C51.7112 1.024 52.1512 1.048 52.6952 1.08C53.2392 1.096 53.7752 1.096 54.3032 1.08C54.8632 1.064 55.4952 1.048 56.1992 1.032C56.9032 1.016 57.4792 1.008 57.9272 1.008ZM57.3272 1.44C56.5912 1.44 56.1112 1.576 55.8872 1.848C55.6632 2.12 55.5512 2.672 55.5512 3.504V15.504C55.5512 16.336 55.6632 16.888 55.8872 17.16C56.1272 17.432 56.6152 17.568 57.3512 17.568C59.0952 17.568 60.4472 17.256 61.4072 16.632C62.3672 15.992 63.0392 15.064 63.4232 13.848C63.8072 12.632 63.9992 11.152 63.9992 9.408C63.9992 7.616 63.7832 6.136 63.3512 4.968C62.9352 3.784 62.2392 2.904 61.2632 2.328C60.3032 1.736 58.9912 1.44 57.3272 1.44ZM78.6955 1.008C79.0315 1.024 79.4715 1.04 80.0155 1.056C80.5595 1.072 81.0955 1.08 81.6235 1.08C82.3755 1.08 83.0955 1.072 83.7835 1.056C84.4715 1.04 84.9595 1.032 85.2475 1.032C86.9275 1.032 88.1915 1.384 89.0395 2.088C89.8875 2.792 90.3115 3.696 90.3115 4.8C90.3115 5.36 90.1915 5.912 89.9515 6.456C89.7275 6.984 89.3435 7.472 88.7995 7.92C88.2715 8.352 87.5595 8.704 86.6635 8.976V9.024C87.9275 9.184 88.9115 9.488 89.6155 9.936C90.3355 10.368 90.8395 10.88 91.1275 11.472C91.4155 12.064 91.5595 12.688 91.5595 13.344C91.5595 14.256 91.3275 15.064 90.8635 15.768C90.4155 16.456 89.7595 17 88.8955 17.4C88.0315 17.8 86.9995 18 85.7995 18C85.4475 18 84.9195 17.992 84.2155 17.976C83.5115 17.944 82.6635 17.928 81.6715 17.928C81.1115 17.928 80.5595 17.936 80.0155 17.952C79.4715 17.952 79.0315 17.968 78.6955 18V17.52C79.2395 17.488 79.6475 17.424 79.9195 17.328C80.2075 17.232 80.3995 17.04 80.4955 16.752C80.5915 16.464 80.6395 16.032 80.6395 15.456V3.552C80.6395 2.96 80.5915 2.528 80.4955 2.256C80.3995 1.968 80.2075 1.776 79.9195 1.68C79.6475 1.568 79.2395 1.504 78.6955 1.488V1.008ZM84.6475 1.488C83.9115 1.488 83.4315 1.624 83.2075 1.896C82.9835 2.168 82.8715 2.72 82.8715 3.552V15.456C82.8715 16.016 82.9195 16.44 83.0155 16.728C83.1115 17.016 83.2875 17.208 83.5435 17.304C83.7995 17.4 84.1755 17.448 84.6715 17.448C86.2395 17.448 87.3755 17.088 88.0795 16.368C88.7995 15.632 89.1595 14.592 89.1595 13.248C89.1595 12.016 88.8235 11.064 88.1515 10.392C87.4955 9.72 86.4075 9.384 84.8875 9.384H82.4155C82.4155 9.384 82.4155 9.32 82.4155 9.192C82.4155 9.048 82.4155 8.976 82.4155 8.976H84.4795C85.4235 8.976 86.1515 8.8 86.6635 8.448C87.1755 8.08 87.5275 7.6 87.7195 7.008C87.9115 6.4 88.0075 5.752 88.0075 5.064C88.0075 3.88 87.7435 2.992 87.2155 2.4C86.7035 1.792 85.8475 1.488 84.6475 1.488ZM108.331 1.008V1.488C108.027 1.552 107.723 1.752 107.419 2.088C107.115 2.408 106.779 2.92 106.411 3.624L101.563 13.224H101.155L95.5388 2.856C95.2188 2.264 94.9468 1.896 94.7228 1.752C94.5148 1.592 94.3228 1.512 94.1467 1.512V1.008C94.4668 1.024 94.7948 1.04 95.1308 1.056C95.4828 1.072 95.8588 1.08 96.2588 1.08C96.7868 1.08 97.3468 1.08 97.9388 1.08C98.5468 1.064 99.1068 1.04 99.6188 1.008V1.512C99.2188 1.512 98.8668 1.56 98.5628 1.656C98.2588 1.752 98.0588 1.928 97.9628 2.184C97.8668 2.44 97.9388 2.8 98.1788 3.264L102.235 11.04L102.043 11.184L105.235 4.824C105.683 3.944 105.899 3.264 105.883 2.784C105.883 2.304 105.699 1.976 105.331 1.8C104.963 1.608 104.443 1.504 103.771 1.488V1.008C104.235 1.024 104.707 1.04 105.187 1.056C105.667 1.072 106.115 1.08 106.531 1.08C106.947 1.08 107.291 1.072 107.563 1.056C107.835 1.04 108.091 1.024 108.331 1.008ZM102.643 10.704V15.456C102.643 16.032 102.691 16.464 102.787 16.752C102.883 17.04 103.067 17.232 103.339 17.328C103.627 17.424 104.043 17.488 104.587 17.52V18C104.219 17.968 103.755 17.952 103.195 17.952C102.651 17.936 102.099 17.928 101.539 17.928C100.915 17.928 100.331 17.936 99.7868 17.952C99.2428 17.952 98.8028 17.968 98.4668 18V17.52C99.0108 17.488 99.4188 17.424 99.6908 17.328C99.9788 17.232 100.171 17.04 100.267 16.752C100.363 16.464 100.411 16.032 100.411 15.456V10.536L101.707 12.024L102.643 10.704ZM125.158 1.008V1.488C124.662 1.552 124.182 1.712 123.718 1.968C123.254 2.224 122.79 2.648 122.326 3.24L117.694 9.168L118.222 7.992L123.982 16.056C124.254 16.456 124.55 16.768 124.87 16.992C125.19 17.216 125.598 17.392 126.094 17.52V18C125.71 17.968 125.23 17.952 124.654 17.952C124.094 17.936 123.614 17.928 123.214 17.928C122.942 17.928 122.606 17.936 122.206 17.952C121.822 17.952 121.334 17.968 120.742 18V17.52C121.286 17.488 121.63 17.392 121.774 17.232C121.918 17.072 121.862 16.808 121.606 16.44L118.102 11.16C117.782 10.664 117.494 10.296 117.238 10.056C116.998 9.8 116.742 9.632 116.47 9.552C116.214 9.472 115.886 9.424 115.486 9.408V8.928C116.158 8.912 116.718 8.784 117.166 8.544C117.63 8.288 118.014 7.968 118.318 7.584L120.622 4.656C121.15 3.984 121.51 3.416 121.702 2.952C121.894 2.488 121.886 2.136 121.678 1.896C121.47 1.64 121.03 1.504 120.358 1.488V1.008C120.662 1.024 120.974 1.04 121.294 1.056C121.614 1.056 121.926 1.064 122.23 1.08C122.55 1.08 122.846 1.08 123.118 1.08C123.534 1.08 123.918 1.072 124.27 1.056C124.622 1.04 124.918 1.024 125.158 1.008ZM117.526 1.008V1.488C116.982 1.504 116.566 1.568 116.278 1.68C116.006 1.776 115.822 1.968 115.726 2.256C115.63 2.528 115.582 2.96 115.582 3.552V15.456C115.582 16.032 115.63 16.464 115.726 16.752C115.822 17.04 116.006 17.232 116.278 17.328C116.566 17.424 116.982 17.488 117.526 17.52V18C117.158 17.968 116.694 17.952 116.134 17.952C115.59 17.936 115.038 17.928 114.478 17.928C113.854 17.928 113.27 17.936 112.726 17.952C112.182 17.952 111.742 17.968 111.406 18V17.52C111.95 17.488 112.358 17.424 112.63 17.328C112.918 17.232 113.11 17.04 113.206 16.752C113.302 16.464 113.35 16.032 113.35 15.456V3.552C113.35 2.96 113.302 2.528 113.206 2.256C113.11 1.968 112.918 1.776 112.63 1.68C112.358 1.568 111.95 1.504 111.406 1.488V1.008C111.742 1.024 112.182 1.04 112.726 1.056C113.27 1.072 113.854 1.08 114.478 1.08C115.038 1.08 115.59 1.072 116.134 1.056C116.694 1.04 117.158 1.024 117.526 1.008ZM135.834 0.671999C137.354 0.671999 138.682 1.016 139.818 1.704C140.97 2.392 141.858 3.384 142.482 4.68C143.122 5.96 143.442 7.52 143.442 9.36C143.442 11.152 143.114 12.72 142.458 14.064C141.818 15.408 140.922 16.456 139.77 17.208C138.618 17.96 137.298 18.336 135.81 18.336C134.29 18.336 132.954 17.992 131.802 17.304C130.666 16.616 129.778 15.624 129.138 14.328C128.514 13.032 128.202 11.472 128.202 9.648C128.202 7.856 128.53 6.288 129.186 4.944C129.842 3.6 130.738 2.552 131.874 1.8C133.026 1.048 134.346 0.671999 135.834 0.671999ZM135.738 1.104C134.698 1.104 133.794 1.464 133.026 2.184C132.258 2.904 131.658 3.896 131.226 5.16C130.81 6.424 130.602 7.888 130.602 9.552C130.602 11.248 130.834 12.728 131.298 13.992C131.778 15.24 132.418 16.208 133.218 16.896C134.034 17.568 134.93 17.904 135.906 17.904C136.946 17.904 137.85 17.544 138.618 16.824C139.386 16.104 139.978 15.112 140.394 13.848C140.826 12.568 141.042 11.104 141.042 9.456C141.042 7.744 140.802 6.264 140.322 5.016C139.858 3.768 139.226 2.808 138.426 2.136C137.626 1.448 136.73 1.104 135.738 1.104ZM161.679 1.008V1.488C161.375 1.552 161.047 1.736 160.695 2.04C160.359 2.344 160.055 2.856 159.783 3.576L154.143 18.12C154.111 18.12 154.079 18.12 154.047 18.12C154.015 18.12 153.983 18.12 153.951 18.12C153.919 18.12 153.887 18.12 153.855 18.12C153.823 18.12 153.791 18.12 153.759 18.12L147.903 3.024C147.663 2.416 147.391 2.016 147.087 1.824C146.783 1.616 146.503 1.504 146.247 1.488V1.008C146.567 1.024 146.959 1.04 147.423 1.056C147.903 1.072 148.367 1.08 148.815 1.08C149.439 1.08 150.023 1.072 150.567 1.056C151.111 1.04 151.551 1.024 151.887 1.008V1.488C151.343 1.504 150.927 1.568 150.639 1.68C150.367 1.792 150.215 1.992 150.183 2.28C150.167 2.552 150.263 2.96 150.471 3.504L154.935 15.336L154.551 15.744L158.727 4.896C159.063 4.032 159.223 3.36 159.207 2.88C159.191 2.384 159.007 2.032 158.655 1.824C158.303 1.616 157.791 1.504 157.119 1.488V1.008C157.583 1.024 158.055 1.04 158.535 1.056C159.015 1.072 159.463 1.08 159.879 1.08C160.295 1.08 160.639 1.072 160.911 1.056C161.183 1.04 161.439 1.024 161.679 1.008Z" fill="#F9F6E3"/>
</g>
<defs>
<filter id="filter0_i_7_3105" x="0.348206" y="0.671997" width="161.33" height="18.6641" filterUnits="userSpaceOnUse" color-interpolation-filters="sRGB">
<feFlood flood-opacity="0" result="BackgroundImageFix"/>
<feBlend mode="normal" in="SourceGraphic" in2="BackgroundImageFix" result="shape"/>
<feColorMatrix in="SourceAlpha" type="matrix" values="0 0 0 0 0 0 0 0 0 0 0 0 0 0 0 0 0 0 127 0" result="hardAlpha"/>
<feOffset dy="1"/>
<feGaussianBlur stdDeviation="1"/>
<feComposite in2="hardAlpha" operator="arithmetic" k2="-1" k3="1"/>
<feColorMatrix type="matrix" values="0 0 0 0 1 0 0 0 0 1 0 0 0 0 1 0 0 0 0.4 0"/>
<feBlend mode="normal" in2="shape" result="effect1_innerShadow_7_3105"/>
</filter>
</defs>
</svg>
