<svg width="236" height="60" viewBox="0 0 236 60" fill="none" xmlns="http://www.w3.org/2000/svg">
<path d="M133.763 19.5704C133.763 12.6963 133.881 6.29629 134.237 0.370361L116.104 3.8074V5.46666L117.881 5.70369C119.185 5.82221 120.015 6.29629 120.489 7.0074C120.963 7.83703 121.318 9.02221 121.556 10.8C121.793 14.237 122.03 22.0593 121.911 34.3852C121.911 46.5926 121.793 54.2963 121.556 57.2593C128.074 58.6815 133.17 59.2741 136.963 59.2741C144.074 59.2741 149.644 57.2593 153.674 53.1111C157.704 49.0815 159.837 43.3926 159.837 36.4C159.837 30.8296 158.296 26.2074 155.215 22.5333C152.133 18.8593 148.222 17.0815 143.6 17.0815C140.518 17.0815 137.318 17.9111 133.763 19.5704ZM134.118 56.0741C133.881 52.2815 133.644 40.9037 133.644 22.2963C134.711 21.9407 136.133 21.7037 137.911 21.7037C140.756 21.7037 143.007 23.1259 144.667 26.0889C146.326 29.0518 147.156 32.6074 147.156 37.1111C147.156 42.6815 146.207 47.1852 144.311 50.9778C142.415 54.6518 140.044 56.5481 137.081 56.5481C136.133 56.3111 135.185 56.1926 134.118 56.0741ZM48.074 1.55555H0.666626V3.92592L3.15551 4.16295C5.05181 4.51851 6.35552 5.22962 7.18514 6.29629C8.01477 7.48147 8.48885 9.37777 8.60737 11.9852C9.55551 24.7852 9.55551 36.7555 8.60737 47.7778C8.37033 50.3852 7.89626 52.2815 7.18514 53.4667C6.35552 54.6518 5.05181 55.363 3.15551 55.6L0.666626 55.9555V58.3259H31.2444V55.9555L28.0444 55.7185C27.2635 55.6532 26.504 55.4305 25.8115 55.0638C25.1189 54.6972 24.5078 54.1942 24.0148 53.5852C23.1851 52.4 22.7111 50.5037 22.5926 47.8963C22.237 43.1555 22 37.7037 22 31.6593L28.4 31.7778C31.837 31.8963 34.2074 34.5037 35.3926 39.7185H37.7629V20.4H35.3926C34.2074 25.4963 31.9555 28.1037 28.4 28.2222L22 28.3407C22 17.6741 22.237 10.0889 22.5926 5.46666H31.9555C38.5926 5.46666 43.0963 9.73333 45.7037 18.2667L48.5481 17.437L48.074 1.55555ZM42.5037 38.0592C42.5037 44.2222 44.2814 49.3185 47.7185 53.3481C51.1555 57.3778 56.2518 59.2741 62.6518 59.2741C69.0518 59.2741 74.2666 57.2593 78.0592 53.1111C81.8518 49.0815 83.6296 43.9852 83.6296 37.8222C83.6296 31.6592 81.8518 26.563 78.4148 22.5333C74.9777 18.5037 69.8814 16.6074 63.4814 16.6074C57.0814 16.6074 51.8666 18.6222 48.074 22.7704C44.2814 26.8 42.5037 31.8963 42.5037 38.0592ZM68.9333 24.5481C70.3555 27.9852 70.9481 32.4889 70.9481 37.9407C70.9481 50.5037 68.3407 56.6667 63.2444 56.6667C60.637 56.6667 58.6222 54.8889 57.2 51.3333C55.7777 47.7778 55.1851 43.2741 55.1851 37.9407C55.1851 25.4963 57.7926 19.3333 62.8888 19.3333C65.4963 19.2148 67.5111 20.9926 68.9333 24.5481ZM169.081 53.3481C172.993 57.2593 177.97 59.2741 183.896 59.2741C187.57 59.2741 190.77 58.563 193.615 57.0222C196.459 55.6 198.711 53.8222 200.252 51.6889L199.067 50.2667C196.459 52.2815 193.496 53.2296 190.059 53.2296C185.318 53.2296 181.644 51.6889 179.156 48.4889C176.548 45.2889 175.363 41.2593 175.6 36.0444H200.963C200.963 30.3555 199.541 25.7333 196.578 22.0592C193.615 18.5037 189.467 16.7259 184.133 16.7259C177.496 16.7259 172.4 18.8593 168.726 23.0074C165.052 27.1555 163.274 32.2518 163.274 38.2963C163.274 44.4593 165.17 49.437 169.081 53.3481ZM177.852 23.6C179.156 20.7555 180.815 19.3333 183.067 19.3333C186.622 19.3333 188.4 23.837 188.4 32.963L175.837 33.2C175.956 29.6444 176.548 26.4444 177.852 23.6ZM232.844 18.8593C229.644 17.437 225.615 16.6074 220.756 16.6074C215.778 16.6074 211.867 17.9111 208.904 20.4C205.941 22.8889 204.4 25.9704 204.4 29.6444C204.4 32.8444 205.348 35.3333 207.126 37.1111C208.904 38.8889 211.748 40.4296 215.422 41.7333C218.741 42.9185 221.111 44.1037 222.296 45.1704C223.481 46.3555 224.193 47.6593 224.193 49.437C224.193 51.0963 223.6 52.637 222.296 53.8222C221.111 55.1259 219.452 55.7185 217.318 55.7185C212.104 55.7185 208.193 51.9259 205.467 44.3407L203.452 44.9333L203.926 56.7852C208.193 58.4444 212.933 59.2741 218.148 59.2741C223.6 59.2741 227.748 58.0889 230.83 55.6C233.911 53.2296 235.452 49.7926 235.452 45.5259C235.452 42.6815 234.741 40.3111 233.2 38.5333C231.659 36.7555 229.17 35.2148 225.615 33.7926C221.704 32.3704 218.978 31.0667 217.556 29.8815C216.133 28.6963 215.422 27.2741 215.422 25.4963C215.422 23.7185 215.896 22.2963 216.963 21.1111C218.03 19.9259 219.333 19.4518 220.993 19.4518C225.733 19.4518 229.17 22.8889 231.304 29.6444L233.318 29.0518L232.844 18.8593ZM118.83 17.7926C117.17 16.963 115.393 16.6074 113.378 16.6074C111.363 16.6074 109.348 17.437 107.096 19.0963C104.844 20.7555 103.185 23.0074 101.881 26.0889L102 16.6074L83.9851 20.163V21.8222L85.7629 21.9407C88.0148 22.1778 89.3185 23.9555 89.5555 27.1555C90.2666 34.5037 90.2666 42.3259 89.5555 50.6222C89.3185 53.8222 88.0148 55.4815 85.7629 55.837L83.9851 56.0741V58.3259H109.111V56.0741L105.911 55.837C103.659 55.6 102.356 53.8222 102.118 50.6222C101.407 43.7481 101.289 36.4 101.881 28.8148C102.593 27.6296 104.133 26.9185 106.504 26.6815C108.874 26.4444 111.6 27.1555 114.444 28.8148L118.83 17.7926Z" fill="white"/>
</svg>
