<svg width="242" height="56" viewBox="0 0 242 56" fill="none" xmlns="http://www.w3.org/2000/svg">
<path d="M20.7928 54.1241H0.62611C0.496212 54.1241 0.496212 53.6334 0.62611 53.6334H6.39935V2.24074H0.62611V1.73197H17.9025C25.2562 1.73197 34.4465 3.02013 34.7676 13.9207C35.0924 24.6698 25.065 26.6435 20.4536 26.6435C27.8109 26.6435 36.8027 31.6157 36.8027 40.4596C36.8027 47.521 30.3078 54.1278 20.7928 54.1278V54.1241ZM16.9175 2.25517H13.569V26.2177H18.8876C23.4845 26.2177 27.2516 21.8481 27.2227 14.2202C27.1939 5.70469 23.0227 2.25517 16.9175 2.25517ZM18.2958 27.0621H13.5654V53.6479H19.151C24.9242 53.6479 28.2547 48.7262 28.3557 40.9142C28.4748 31.7059 24.4696 27.0621 18.2958 27.0621ZM57.6261 54.0628V53.702H63.9586L59.3436 38.641H44.1131L40.8656 49.4442C40.144 52.1216 39.8156 53.6767 39.8156 53.6767H45.993V54.0375H33.3893V53.6767H39.1805C39.1805 53.6767 39.4981 52.3417 40.2883 49.4442L54.8693 0L71.637 53.6839H77.4644V54.0448L57.6261 54.0628ZM51.9178 11.68L44.1095 38.0745H58.9828L51.9178 11.68ZM81.6139 54.052L106.367 1.8763H94.398C85.5974 1.99899 83.1185 11.7413 82.9706 22.0827C82.9489 23.4646 82.8263 25.2868 82.7577 27.3291C82.7577 27.3291 82.3572 27.3507 82.3572 27.293L82.386 1.36393H113.829L89.4366 53.6839H100.334C110.852 53.3736 112.941 46.4674 113.323 27.3038H113.803V54.0267H81.6103L81.6139 54.052ZM238.992 54.6473C237.837 55.1115 236.596 55.3267 235.352 55.2788C229.409 55.2788 227.37 51.3277 227.608 40.8457V36.025C227.608 29.4832 224.134 27.2136 218.617 27.2136H213.298V53.7236H220.154V54.0159H200.362V53.7381H206.19L206.139 1.8294H200.366V1.3098H219.017C228.081 1.3098 235.575 3.55054 235.59 14.2455C235.59 23.2842 227.5 26.7373 221.196 26.7373C230.524 26.7373 236.055 30.277 234.976 41.0045L234.764 47.6942C234.764 51.4865 235.308 54.2865 237.704 54.2757C238.434 54.3251 239.154 54.0839 239.707 53.6046C240.196 53.0752 240.515 52.4117 240.623 51.6994C240.725 51.1584 240.755 50.6065 240.714 50.0576C240.714 50.0576 240.746 42.3359 240.714 42.2962C240.867 42.3109 241.022 42.3109 241.175 42.2962V47.1097C241.23 51.4215 241.226 51.9484 240.815 52.8071C240.45 53.6142 239.811 54.2652 239.01 54.6437L238.992 54.6473ZM217.57 1.8763H213.291V26.3765H218.609C224.585 26.3765 227.468 22.9955 227.883 14.5414C228.341 5.25726 223.192 1.8763 217.559 1.8763H217.57ZM140.714 54.0664V53.7056H147.046L142.406 38.6519H127.179L123.932 49.455C123.21 52.1324 122.882 53.6875 122.882 53.6875H129.045V54.0484H116.466V53.6875H122.239C122.239 53.6875 122.557 52.3525 123.347 49.455L137.946 0L154.714 53.6912H160.538V54.052L140.714 54.0664ZM134.991 11.6908L127.179 38.0854H142.053L134.991 11.6908ZM181.614 54.0809V53.72H187.946L183.306 38.6807H168.083L164.835 49.4839C164.114 52.1612 163.785 53.7164 163.785 53.7164H169.948V54.0772H157.359V53.7164H163.132C163.132 53.7164 163.45 52.3814 164.24 49.4839L178.839 0.0252579L195.607 53.7092H201.43V54.07L181.614 54.0809ZM175.891 11.7052L168.083 38.0998H182.956L175.891 11.7052Z" fill="white"/>
</svg>
