<svg width="328" height="48" viewBox="0 0 328 48" fill="none" xmlns="http://www.w3.org/2000/svg">
<path d="M303.104 28.5009C303.104 25.012 315.126 23.8441 315.126 23.8441L314.957 20.3543C313.204 20.3063 306.36 20.558 306.36 18.7249C306.36 16.3319 316.831 15.7486 320.501 15.6189L319.748 10.0352C313.423 10.0527 285.006 10.1288 283.843 17.8271C283.215 21.9834 291.397 22.9652 291.397 22.9652L291.394 23.1609C291.394 23.1609 280.681 25.1433 280.681 30.334C280.681 40.9246 317.635 37.9591 327.2 35.3236C327.2 35.3236 326.274 30.62 325.852 30.4017C325.47 30.2044 317.713 31.3522 311.558 31.1874C306.551 31.0528 303.104 30.2533 303.104 28.5009Z" fill="white"/>
<path d="M226.111 5.20747C226.111 8.2122 222.818 10.3372 217.056 10.3372C211.395 10.3372 207.996 8.25819 207.996 5.20747C207.996 1.80342 212.979 0 217.052 0C221.009 0 226.111 1.75826 226.111 5.20747Z" fill="white"/>
<path d="M278.44 30.1729C277.982 30.0203 274.65 30.7704 270.92 29.4767C264.952 27.4061 264.036 19.395 271.122 14.8185L264.491 9.19873C252.794 13.7108 250.387 14.0324 249.292 14.2829C248.749 12.691 246.21 10.017 240.826 10.3382C237.897 10.5129 233.544 12.1583 232.286 15.1555C231.437 17.1751 231.951 19.4427 233.918 20.9923C236.753 23.226 242.165 22.6694 242.165 22.6694C240.461 29.8154 225.621 34.7034 225.621 27.0444V13.9032H207.996V29.1652C207.996 36.7895 217.343 38.7618 226.522 38.1555C239.364 37.3071 246.587 29.9299 249.22 21.9665L255.485 20.5189C255.485 20.5189 246.911 31.7049 257.61 36.792C263.714 39.6943 274.939 37.4572 279.45 35.0508C279.45 35.0508 278.701 30.2598 278.44 30.1729ZM238.177 16.3773C238.292 14.4706 243.028 13.9814 243.316 16.1875C243.316 16.1875 238.051 18.4362 238.177 16.3773Z" fill="white"/>
<path d="M206.051 31.4692C205.89 31.2994 202.863 32.0546 200.67 31.5185C198.249 30.9265 198.092 29.113 198.092 26.7012L198.093 13.7983C198.093 13.7983 179.943 13.8021 179.942 13.8021V25.9791C179.942 27.415 180.063 30.911 174.97 30.911C172.681 30.911 170.067 30.7182 170.067 27.415V13.7983H152.019L152.035 29.3125C152.035 38.1573 166.857 40.8622 182.086 35.0878C182.086 35.0878 189.214 40.7276 207.038 36.5805C207.038 36.5805 206.26 31.6891 206.051 31.4692Z" fill="white"/>
<path d="M146.792 45.3796L146.785 13.5662L130.268 13.5687C130.268 13.5687 130.827 25.0448 129.959 27.2748C128.482 32.1235 116.581 31.4348 116.584 25.782C116.588 19.211 128.704 20.3408 128.704 20.3408L127.491 13.5544C127.491 13.5544 99.4774 10.9449 98.1357 25.9334C97.8353 36.3805 116.428 40.7354 130.177 35.5932L130.171 48.0001L146.792 45.3796Z" fill="white"/>
<path d="M93.0231 30.1153C94.6845 28.426 94.5846 26.3713 93.1748 24.133C91.0936 20.8289 85.3456 18.8942 83.9721 16.2716C83.3689 15.1193 83.3919 13.7507 84.2883 12.0656L83.9788 10.6816L64.583 12.8262C63.4347 15.4153 64.606 17.4349 64.6904 17.6724C50.6796 32.6906 27.9583 32.8265 27.3534 27.5333C26.7861 22.5692 42.3208 21.4724 42.3208 21.4724L42.0167 16.5242C42.0167 16.5242 31.5529 17.3479 31.3958 14.1241C31.2337 10.7999 41.022 9.72529 46.6974 9.65965L45.2487 1.67951C26.873 1.47839 9.69664 5.53097 8.11845 12.4796C7.64474 14.564 9.03537 18.2302 16.6151 19.7597V20.0261C16.6151 20.0261 0.692405 22.542 0.800598 29.458C0.896676 35.61 14.6309 38.3425 24.3294 38.4107C43.9813 38.5479 54.3415 32.0287 54.3415 32.0287C51.5953 39.5489 73.1123 40.4571 88.0504 35.0598C88.7614 34.803 94.5019 37.2495 97.9879 38.792C97.9879 38.792 100.218 33.4458 99.9195 32.7178C99.648 32.0559 93.0231 30.1153 93.0231 30.1153ZM73.825 32.1148C71.8908 34.4999 64.3173 34.4769 64.8487 32.9156C65.4202 31.2359 72.9335 31.6565 73.825 32.1148ZM59.2507 29.5608C59.2507 29.5608 63.8035 26.6757 68.483 22.5684C68.483 22.5684 72.5137 24.9254 74.3584 27.7277C74.3584 27.7277 67.932 26.5059 59.2507 29.5608Z" fill="white"/>
</svg>
