<svg width="39" height="24" viewBox="0 0 39 24" fill="none" xmlns="http://www.w3.org/2000/svg">
<path opacity="0.07" d="M35.33 0H3.32996C1.62996 0 0.329956 1.3 0.329956 3V21C0.329956 22.7 1.72996 24 3.32996 24H35.33C37.03 24 38.33 22.7 38.33 21V3C38.33 1.3 36.93 0 35.33 0Z" fill="black"/>
<path d="M35.33 1C36.43 1 37.33 1.9 37.33 3V21C37.33 22.1 36.43 23 35.33 23H3.32996C2.22996 23 1.32996 22.1 1.32996 21V3C1.32996 1.9 2.22996 1 3.32996 1H35.33Z" fill="white"/>
<path d="M15.33 19C19.1959 19 22.33 15.866 22.33 12C22.33 8.13401 19.1959 5 15.33 5C11.464 5 8.32996 8.13401 8.32996 12C8.32996 15.866 11.464 19 15.33 19Z" fill="#EB001B"/>
<path d="M23.33 19C27.1959 19 30.33 15.866 30.33 12C30.33 8.13401 27.1959 5 23.33 5C19.464 5 16.33 8.13401 16.33 12C16.33 15.866 19.464 19 23.33 19Z" fill="#00A2E5"/>
<path d="M22.33 11.9998C22.33 9.5998 21.13 7.4998 19.33 6.2998C17.53 7.5998 16.33 9.6998 16.33 11.9998C16.33 14.2998 17.53 16.4998 19.33 17.6998C21.13 16.4998 22.33 14.3998 22.33 11.9998Z" fill="#7375CF"/>
</svg>
