<svg width="39" height="24" viewBox="0 0 39 24" fill="none" xmlns="http://www.w3.org/2000/svg">
<path opacity="0.07" d="M35.33 0H3.32996C1.62996 0 0.329956 1.3 0.329956 3V21C0.329956 22.7 1.72996 24 3.32996 24H35.33C37.03 24 38.33 22.7 38.33 21V3C38.33 1.3 36.93 0 35.33 0Z" fill="black"/>
<path d="M35.33 1C36.43 1 37.33 1.9 37.33 3V21C37.33 22.1 36.43 23 35.33 23H3.32996C2.22996 23 1.32996 22.1 1.32996 21V3C1.32996 1.9 2.22996 1 3.32996 1H35.33Z" fill="white"/>
<path d="M24.23 8.3C24.43 7.3 24.23 6.6 23.63 6C23.03 5.3 21.93 5 20.53 5H16.43C16.13 5 15.93 5.2 15.83 5.5L14.33 15.6C14.33 15.8 14.43 16 14.63 16H17.33L17.73 12.6L19.53 10.4L24.23 8.3Z" fill="#003087"/>
<path d="M24.2299 8.2998L24.0299 8.4998C23.5299 11.2998 21.8299 12.2998 19.4299 12.2998H18.3299C18.0299 12.2998 17.8299 12.4998 17.7299 12.7998L17.1299 16.6998L16.9299 17.6998C16.9299 17.8998 17.0299 18.0998 17.2299 18.0998H19.3299C19.6299 18.0998 19.8299 17.8998 19.8299 17.6998V17.5998L20.2299 15.1998V15.0998C20.2299 14.8998 20.5299 14.6998 20.7299 14.6998H21.0299C23.1299 14.6998 24.7299 13.8998 25.1299 11.4998C25.3299 10.4998 25.2299 9.6998 24.7299 9.0998C24.6299 8.5998 24.4299 8.3998 24.2299 8.2998Z" fill="#3086C8"/>
<path d="M23.63 8.0998C23.53 7.9998 23.43 7.9998 23.33 7.9998C23.23 7.9998 23.13 7.9998 23.03 7.8998C22.73 7.7998 22.33 7.7998 21.93 7.7998H18.93C18.83 7.7998 18.73 7.7998 18.73 7.8998C18.53 7.9998 18.43 8.0998 18.43 8.2998L17.73 12.6998V12.7998C17.73 12.4998 18.03 12.2998 18.33 12.2998H19.63C22.13 12.2998 23.73 11.2998 24.23 8.4998V8.2998C24.13 8.1998 23.93 8.0998 23.73 8.0998H23.63Z" fill="#012169"/>
</svg>
