<svg width="39" height="24" viewBox="0 0 39 24" fill="none" xmlns="http://www.w3.org/2000/svg">
<path opacity="0.07" d="M35.33 0H3.32996C1.62996 0 0.329956 1.3 0.329956 3V21C0.329956 22.7 1.72996 24 3.32996 24H35.33C37.03 24 38.33 22.7 38.33 21V3C38.33 1.3 36.93 0 35.33 0Z" fill="black"/>
<path d="M35.33 1C36.43 1 37.33 1.9 37.33 3V21C37.33 22.1 36.43 23 35.33 23H3.32996C2.22996 23 1.32996 22.1 1.32996 21V3C1.32996 1.9 2.22996 1 3.32996 1H35.33Z" fill="white"/>
<path d="M18.423 11.9762V15.1762H17.405V7.27623H20.096C20.4184 7.27077 20.7387 7.3291 21.0385 7.44786C21.3384 7.56661 21.6117 7.74346 21.843 7.96823C22.062 8.17262 22.2386 8.41818 22.3627 8.69087C22.4868 8.96355 22.5559 9.25802 22.5661 9.55743C22.5763 9.85685 22.5274 10.1553 22.4222 10.4358C22.317 10.7164 22.1576 10.9734 21.953 11.1922L21.843 11.3082C21.373 11.7552 20.745 11.9982 20.096 11.9822L18.423 11.9762ZM18.423 8.24423V11.0322H20.121C20.498 11.0442 20.862 10.8972 21.126 10.6282C21.3148 10.4314 21.4416 10.1834 21.4906 9.91506C21.5396 9.64673 21.5086 9.36992 21.4015 9.11906C21.2944 8.8682 21.1159 8.65436 20.8882 8.50415C20.6606 8.35394 20.3937 8.27398 20.121 8.27423L18.423 8.24423ZM24.907 9.59223C25.557 9.56223 26.193 9.78023 26.685 10.2052C27.13 10.6352 27.367 11.2352 27.335 11.8542V15.1882H26.366V14.4222H26.317C26.1432 14.7095 25.8975 14.9465 25.6041 15.1098C25.3106 15.2731 24.9797 15.357 24.644 15.3532C24.0959 15.371 23.5614 15.1805 23.148 14.8202C22.9521 14.6605 22.7951 14.4582 22.6889 14.2289C22.5827 13.9995 22.5301 13.749 22.535 13.4962C22.5234 13.2408 22.573 12.9864 22.6796 12.754C22.7863 12.5216 22.9468 12.318 23.148 12.1602C23.6414 11.8054 24.2386 11.6243 24.846 11.6452C25.363 11.6252 25.876 11.7382 26.336 11.9762V11.7682C26.3393 11.5963 26.3036 11.4258 26.2313 11.2697C26.1591 11.1136 26.0523 10.976 25.919 10.8672C25.6513 10.6239 25.3006 10.4922 24.939 10.4992C24.6763 10.4968 24.4173 10.5613 24.1865 10.6868C23.9557 10.8122 23.7607 10.9944 23.62 11.2162L22.725 10.6522C22.968 10.304 23.2961 10.0238 23.678 9.83828C24.06 9.65274 24.483 9.56803 24.907 9.59223ZM23.62 13.5202C23.6176 13.6497 23.647 13.7779 23.7058 13.8933C23.7646 14.0088 23.8508 14.108 23.957 14.1822C24.18 14.3582 24.457 14.4512 24.742 14.4452C25.171 14.4442 25.582 14.2752 25.888 13.9732C26.193 13.6872 26.366 13.2882 26.366 12.8702C25.981 12.5965 25.5132 12.4644 25.042 12.4962C24.6761 12.4818 24.3151 12.5848 24.012 12.7902C23.8919 12.8706 23.7934 12.9791 23.725 13.1064C23.6567 13.2337 23.6206 13.3758 23.62 13.5202ZM32.906 9.77023L29.516 17.5602H28.468L29.749 14.8322L27.525 9.77023H28.628L30.24 13.6552L31.809 9.77023H32.906Z" fill="#5F6368"/>
<path d="M14.3159 11.2838C14.3159 10.9758 14.2919 10.6678 14.2429 10.3638H9.95294V12.1108H12.4039C12.354 12.3884 12.2486 12.6531 12.094 12.889C11.9393 13.125 11.7386 13.3273 11.5039 13.4838V14.6178H12.9679C13.4131 14.1871 13.763 13.6678 13.9952 13.0936C14.2274 12.5194 14.3366 11.9028 14.3159 11.2838Z" fill="#4285F4"/>
<path d="M9.95898 15.7209C11.0653 15.7513 12.1416 15.359 12.969 14.6239L11.503 13.4839C11.1507 13.7098 10.7516 13.8523 10.336 13.9008C9.92038 13.9492 9.49919 13.9022 9.10447 13.7633C8.70974 13.6245 8.35187 13.3975 8.05807 13.0995C7.76427 12.8016 7.54228 12.4406 7.40898 12.0439H5.90698V13.2139C6.28283 13.967 6.86103 14.6004 7.57674 15.0432C8.29245 15.486 9.11736 15.7207 9.95898 15.7209Z" fill="#34A853"/>
<path d="M7.40895 12.05C7.21874 11.4873 7.21874 10.8777 7.40895 10.315V9.14502H5.90695C5.58673 9.77647 5.41986 10.4745 5.41986 11.1825C5.41986 11.8905 5.58673 12.5886 5.90695 13.22L7.40895 12.05Z" fill="#FF5F00"/>
<path d="M9.95898 8.44019C10.606 8.42837 11.2314 8.6728 11.699 9.12019L12.999 7.82719C12.1701 7.0492 11.0706 6.62485 9.93398 6.64419C9.09735 6.64838 8.27822 6.88419 7.56742 7.32547C6.85661 7.76674 6.28189 8.39625 5.90698 9.14419L7.40898 10.3152C7.5846 9.77527 7.92507 9.304 8.38249 8.96766C8.83991 8.63132 9.39126 8.44685 9.95898 8.44019Z" fill="#EA4335"/>
</svg>
