<svg width="39" height="24" viewBox="0 0 39 24" fill="none" xmlns="http://www.w3.org/2000/svg">
<path d="M18.03 0V24H10.83C9.52996 24 8.72996 23 9.02996 21.7L13.43 2.3C13.73 0.999999 15.33 0 16.63 0H18.03ZM30.63 0C29.33 0 27.73 0.999999 27.43 2.3L22.93 21.7C22.63 23 23.43 24 24.73 24H19.83V0H30.63Z" fill="#005B9A"/>
<path d="M16.6299 0C15.3299 0 13.7299 1.1 13.4299 2.3L9.02993 21.7C8.72993 23 9.52993 24 10.8299 24H1.92993C1.12993 24 0.429932 23.4 0.429932 22.6V1.6C0.429932 0.8 1.12993 0 1.92993 0H16.6299Z" fill="#E9292D"/>
<path d="M30.63 0C29.33 0 27.73 1.1 27.43 2.3L23.03 21.7C22.73 23 23.53 24 24.83 24H10.33H10.83C9.53002 24 8.73002 23 9.03002 21.7L13.43 2.3C13.73 0.999999 15.33 0 16.63 0H30.63Z" fill="#0E73B9"/>
<path d="M38.3299 1.6V22.6C38.3299 23.4 37.7299 24 36.8299 24H24.7299C23.4299 24 22.6299 22.9 22.9299 21.7L27.4299 2.3C27.7299 0.999999 29.3299 0 30.6299 0H36.8299C37.7299 0 38.3299 0.7 38.3299 1.6Z" fill="#059DA4"/>
<path d="M15.208 13.6449H15.348C15.488 13.6449 15.628 13.5749 15.628 13.5049L16.048 12.8749H17.238L17.028 13.2249H18.428L18.218 13.8549H16.538C16.328 14.1349 16.118 14.2749 15.838 14.2749H14.998L15.208 13.6449ZM14.998 14.5549H18.008L17.798 15.2549H16.608L16.398 15.9549H17.588L17.378 16.6549H16.188L15.908 17.7049C15.838 17.8449 15.908 17.9849 16.188 17.9149H17.168L16.958 18.6149H15.068C14.718 18.6149 14.578 18.4049 14.718 17.9849L15.068 16.6549H14.298L14.508 15.9549H15.278L15.488 15.2549H14.788L14.998 14.5549ZM19.828 12.8049V13.2249C19.828 13.2249 20.388 12.8049 20.948 12.8049H22.908L22.138 15.4649C22.068 15.7449 21.788 15.9549 21.368 15.9549H19.128L18.638 17.8449C18.638 17.9149 18.638 17.9849 18.778 17.9849H19.198L19.058 18.5449H17.938C17.518 18.5449 17.378 18.4049 17.448 18.1949L18.918 12.8049H19.828ZM21.508 13.5749H19.758L19.548 14.2749C19.548 14.2749 19.828 14.0649 20.318 14.0649H21.368L21.508 13.5749ZM20.878 15.2549C21.018 15.2549 21.088 15.2549 21.088 15.1149L21.228 14.7649H19.478L19.338 15.3249L20.878 15.2549ZM19.688 16.0949H20.668V16.5149H20.948C21.088 16.5149 21.158 16.4449 21.158 16.3749L21.228 16.0949H22.068L21.928 16.5849C21.858 16.9349 21.578 17.0749 21.158 17.1449H20.598V17.9149C20.598 18.0549 20.668 18.1249 20.948 18.1249H21.438L21.298 18.6849H20.108C19.758 18.6849 19.618 18.5449 19.618 18.1949L19.688 16.0949ZM23.888 13.6449L24.098 12.8049H25.288L25.218 13.0849C25.218 13.0849 25.778 12.8049 26.268 12.8049H27.738L27.528 13.6449H27.318L26.198 17.4949H26.408L26.198 18.2649H25.988L25.918 18.6149H24.728L24.798 18.2649H22.628L22.838 17.4949H23.048L24.168 13.6449H23.888ZM25.148 13.6449L24.868 14.6949C24.868 14.6949 25.358 14.4849 25.778 14.4149C25.848 14.0649 25.988 13.6449 25.988 13.6449H25.148ZM24.658 15.1849L24.378 16.3049C24.378 16.3049 24.938 16.0249 25.358 16.0249C25.498 15.6049 25.568 15.2549 25.568 15.2549L24.658 15.1849ZM24.868 17.4949L25.078 16.7249H24.238L24.028 17.4949H24.868ZM27.738 12.8049H28.858L28.928 13.2249C28.928 13.2949 28.998 13.3649 29.138 13.3649H29.348L29.138 14.0649H28.368C28.088 14.0649 27.878 13.9949 27.878 13.7149L27.738 12.8049ZM27.388 14.2749H30.958L30.748 15.0449H29.558L29.348 15.7449H30.468L30.258 16.5149H28.998L28.718 16.9349H29.348L29.488 17.7749C29.488 17.8449 29.558 17.9149 29.698 17.9149H29.908L29.698 18.6149H28.998C28.648 18.6149 28.438 18.5449 28.438 18.2649L28.298 17.4949L27.738 18.3349C27.598 18.5449 27.388 18.6849 27.108 18.6849H26.058L26.268 17.9849H26.618C26.758 17.9849 26.828 17.9149 26.968 17.7749L27.808 16.5149H26.758L26.968 15.7449H28.158L28.368 15.0449H27.178L27.388 14.2749ZM7.64801 9.23494C7.50801 9.93494 7.22801 10.4249 6.73801 10.7749C6.24801 11.1249 5.61801 11.3349 4.84801 11.3349C4.14801 11.3349 3.58801 11.1249 3.30801 10.7749C3.09801 10.4949 2.95801 10.2149 2.95801 9.79494C2.95801 9.65494 2.95801 9.44494 3.02801 9.23494L3.86801 5.31494H5.05801L4.28801 9.23494V9.51494C4.28801 9.72494 4.35801 9.86494 4.42801 10.0049C4.56801 10.2149 4.77801 10.2849 5.12801 10.2849C5.47801 10.2849 5.82801 10.2149 6.03801 10.0049C6.24801 9.79494 6.45801 9.58494 6.52801 9.23494L7.29801 5.31494H8.48801L7.64801 9.23494ZM8.76801 7.69494H9.60801L9.53801 8.18494L9.67801 8.04494C9.95801 7.76494 10.308 7.62494 10.728 7.62494C11.078 7.62494 11.358 7.76494 11.498 7.97494C11.638 8.18494 11.708 8.46494 11.638 8.88494L11.148 11.2649H10.238L10.658 9.09494C10.728 8.81494 10.728 8.60494 10.658 8.53494C10.588 8.39494 10.448 8.39494 10.308 8.39494C10.098 8.39494 9.88801 8.46494 9.74801 8.60494C9.60801 8.74494 9.46801 8.95494 9.46801 9.23494L9.04801 11.2649H8.13801L8.76801 7.69494ZM18.568 7.69494H19.408L19.338 8.18494L19.478 8.04494C19.758 7.76494 20.108 7.62494 20.528 7.62494C20.878 7.62494 21.158 7.76494 21.298 7.97494C21.438 8.18494 21.508 8.46494 21.438 8.88494L20.948 11.2649H20.038L20.458 9.02494C20.528 8.81494 20.458 8.60494 20.388 8.53494C20.318 8.39494 20.178 8.39494 20.038 8.39494C19.828 8.39494 19.618 8.46494 19.478 8.60494C19.338 8.74494 19.198 8.95494 19.198 9.23494L18.778 11.2649H17.868L18.568 7.69494ZM12.758 7.69494H13.738L12.968 11.1949H11.988L12.758 7.69494ZM13.108 6.36494H14.088L13.878 7.20494H12.898L13.108 6.36494ZM14.508 10.9149C14.298 10.7049 14.158 10.3549 14.158 9.93494V9.72494C14.158 9.65494 14.158 9.51494 14.228 9.44494C14.368 8.88494 14.578 8.39494 14.928 8.11494C15.278 7.76494 15.768 7.62494 16.258 7.62494C16.678 7.62494 17.028 7.76494 17.308 7.97494C17.518 8.18494 17.658 8.53494 17.658 8.95494V9.16494C17.658 9.23494 17.658 9.37494 17.588 9.44494C17.448 10.0049 17.238 10.4249 16.888 10.7749C16.538 11.1249 16.048 11.2649 15.558 11.2649C15.208 11.2649 14.858 11.1249 14.508 10.9149ZM16.398 10.2149C16.538 10.0049 16.678 9.72494 16.748 9.37494V9.02494C16.748 8.81494 16.678 8.67494 16.608 8.53494C16.5464 8.46651 16.4707 8.41229 16.3861 8.37603C16.3015 8.33977 16.21 8.32234 16.118 8.32494C15.838 8.32494 15.628 8.39494 15.488 8.60494C15.348 8.81494 15.208 9.09494 15.138 9.44494V9.72494C15.138 9.93494 15.208 10.0749 15.278 10.2149C15.418 10.3549 15.558 10.4249 15.768 10.4249C16.048 10.4949 16.188 10.4249 16.398 10.2149ZM22.908 5.52494H25.428C25.918 5.52494 26.268 5.66494 26.548 5.87494C26.828 6.08494 26.898 6.43494 26.898 6.78494V7.06494C26.898 7.13494 26.898 7.27494 26.828 7.34494C26.758 7.83494 26.478 8.32494 26.128 8.60494C25.708 8.95494 25.288 9.09494 24.728 9.09494H23.328L22.908 11.1249H21.718L22.908 5.52494ZM23.468 8.11494H24.588C24.868 8.11494 25.078 8.04494 25.288 7.90494C25.428 7.76494 25.568 7.55494 25.638 7.27494V6.99494C25.638 6.78494 25.568 6.64494 25.428 6.57494C25.288 6.50494 25.078 6.43494 24.728 6.43494H23.818L23.468 8.11494ZM32.148 11.8249C31.798 12.5949 31.448 13.0849 31.238 13.2949C31.028 13.5049 30.608 13.9949 29.628 13.9949L29.698 13.3649C30.538 13.0849 30.958 11.9649 31.238 11.4049L30.958 7.62494H32.148L32.218 10.0049L33.128 7.69494H34.178L32.148 11.8249ZM29.208 7.97494L28.788 8.25494C28.368 7.90494 27.948 7.69494 27.248 8.04494C26.268 8.53494 25.358 12.1749 28.158 10.9849L28.298 11.1949H29.418L30.118 7.90494L29.208 7.97494ZM28.648 9.79494C28.438 10.3549 28.088 10.6349 27.738 10.5649C27.458 10.4249 27.388 9.93494 27.528 9.37494C27.738 8.81494 28.088 8.53494 28.438 8.60494C28.718 8.74494 28.788 9.23494 28.648 9.79494Z" fill="white"/>
</svg>
