<svg width="39" height="24" viewBox="0 0 39 24" fill="none" xmlns="http://www.w3.org/2000/svg">
<path opacity="0.07" d="M35.33 0H3.32996C1.62996 0 0.329956 1.3 0.329956 3V21C0.329956 22.7 1.72996 24 3.32996 24H35.33C37.03 24 38.33 22.7 38.33 21V3C38.33 1.3 36.93 0 35.33 0Z" fill="black"/>
<path d="M35.33 1C36.43 1 37.33 1.9 37.33 3V21C37.33 22.1 36.43 23 35.33 23H3.32996C2.22996 23 1.32996 22.1 1.32996 21V3C1.32996 1.9 2.22996 1 3.32996 1H35.33Z" fill="#006FCF"/>
<path d="M22.342 19.9361V11.5151L37.33 11.5281V13.8541L35.598 15.7061L37.33 17.5731V19.9481H34.564L33.094 18.3261L31.634 19.9541L22.342 19.9341V19.9361Z" fill="white"/>
<path d="M23.343 19.0119V12.4419H28.915V13.9549H25.147V14.9829H28.825V16.4709H25.147V17.4809H28.915V19.0119H23.343Z" fill="#006FCF"/>
<path d="M28.887 19.0119L31.97 15.7229L28.887 12.4409H31.273L33.157 14.5239L35.047 12.4419H37.33V12.4929L34.313 15.7229L37.33 18.9199V19.0129H35.023L33.106 16.9099L31.208 19.0139H28.887V19.0119Z" fill="#006FCF"/>
<path d="M23.04 4.04004H26.654L27.923 6.92104V4.04004H32.383L33.153 6.19904L33.924 4.04004H37.33V12.461H19.33L23.04 4.04004Z" fill="white"/>
<path d="M23.725 4.95508L20.809 11.5211H22.809L23.359 10.2061H26.339L26.889 11.5211H28.939L26.035 4.95508H23.725ZM23.975 8.73208L24.85 6.64208L25.723 8.73208H23.975Z" fill="#006FCF"/>
<path d="M28.9109 11.5201V4.95312L31.722 4.96312L33.17 9.00012L34.626 4.95412H37.33V11.5191L35.5899 11.5351V7.02513L33.946 11.5191H32.356L30.68 7.01013V11.5201H28.912H28.9109Z" fill="#006FCF"/>
</svg>
