<svg width="39" height="24" viewBox="0 0 39 24" fill="none" xmlns="http://www.w3.org/2000/svg">
<path d="M34.7171 0H3.94283C3.81464 0 3.68622 0 3.55825 0.00067947C3.45022 0.00158543 3.34241 0.00271788 3.23437 0.00566225C2.99905 0.012004 2.76169 0.0260463 2.52931 0.0677205C2.29626 0.107648 2.07046 0.182074 1.85935 0.288548C1.43495 0.504411 1.08998 0.849374 0.874119 1.27378C0.767456 1.48497 0.693021 1.71095 0.653292 1.94419C0.611165 2.17679 0.597349 2.41393 0.591007 2.64903C0.588247 2.75697 0.586586 2.86493 0.586024 2.97291C0.585571 3.10065 0.585571 3.22884 0.585571 3.35726V20.6425C0.585571 20.7709 0.585571 20.8989 0.586024 21.0273C0.586704 21.1351 0.588063 21.2432 0.591007 21.3512C0.597349 21.5858 0.611391 21.8232 0.653292 22.0556C0.692939 22.2888 0.767298 22.5148 0.873893 22.726C0.981064 22.9369 1.12095 23.1296 1.28837 23.2967C1.4555 23.4642 1.64814 23.6041 1.85912 23.7112C2.07361 23.8206 2.29331 23.8902 2.52953 23.9325C2.76169 23.974 2.99905 23.988 3.23437 23.9943C3.34241 23.9968 3.45022 23.9982 3.55825 23.9989C3.68622 23.9998 3.81464 23.9998 3.94283 23.9998H34.7171C34.8451 23.9998 34.9735 23.9998 35.1015 23.9989C35.2093 23.9984 35.3171 23.9968 35.4256 23.9943C35.6605 23.988 35.8978 23.974 36.1307 23.9325C36.3638 23.8925 36.5896 23.818 36.8006 23.7112C37.2248 23.4951 37.5697 23.1502 37.7859 22.726C37.8952 22.5115 37.9646 22.2918 38.0065 22.0556C38.0486 21.8232 38.0622 21.5858 38.0685 21.3512C38.0715 21.2432 38.073 21.1351 38.0735 21.0273C38.0744 20.8989 38.0744 20.7709 38.0744 20.6425V3.35749C38.0744 3.22907 38.0744 3.10087 38.0735 2.97268C38.0731 2.86478 38.0714 2.75689 38.0685 2.64903C38.0622 2.41393 38.0486 2.17679 38.0065 1.94419C37.967 1.71091 37.8926 1.4849 37.7859 1.27378C37.5699 0.849448 37.225 0.504513 36.8006 0.288548C36.5895 0.182184 36.3637 0.107836 36.1307 0.067947C35.8978 0.0260463 35.6605 0.0122305 35.4256 0.00588874C35.3176 0.00314533 35.2095 0.00148432 35.1015 0.000905959C34.9735 0 34.8451 0 34.7171 0Z" fill="black"/>
<path d="M34.7171 0.799805L35.0958 0.800484C35.1982 0.801164 35.3008 0.802296 35.4038 0.805014C35.5834 0.809997 35.7932 0.819736 35.9888 0.854842C36.1587 0.885418 36.3014 0.931848 36.4382 1.00161C36.712 1.1408 36.9344 1.36345 37.0733 1.63736C37.1426 1.77326 37.1888 1.91504 37.2194 2.08649C37.2542 2.27992 37.264 2.49033 37.2687 2.67084C37.2717 2.77276 37.273 2.87468 37.2733 2.97886C37.2744 3.10502 37.2744 3.23095 37.2744 3.35733V20.6426C37.2744 20.769 37.2744 20.8949 37.2735 21.0235C37.273 21.1255 37.2717 21.2274 37.269 21.3293C37.264 21.5096 37.2542 21.72 37.2189 21.9157C37.1932 22.0713 37.144 22.2222 37.0728 22.363C36.9336 22.637 36.7109 22.8597 36.4368 22.9988C36.3009 23.0681 36.1587 23.1145 35.9904 23.1448C35.7909 23.1804 35.5721 23.1901 35.4074 23.1947C35.3039 23.1969 35.2009 23.1985 35.0951 23.199C34.9694 23.1999 34.843 23.1999 34.7171 23.1999H3.93781C3.81324 23.1999 3.68867 23.1999 3.56184 23.199C3.45991 23.1985 3.35798 23.1972 3.25608 23.1949C3.08757 23.1904 2.86878 23.1804 2.67083 23.1451C2.51432 23.119 2.36266 23.0694 2.22102 22.9979C2.08515 22.9288 1.96114 22.8386 1.85365 22.7306C1.74582 22.623 1.65577 22.4989 1.58685 22.363C1.51567 22.2214 1.46634 22.0698 1.44054 21.9134C1.4052 21.718 1.39524 21.5085 1.39071 21.3295C1.38815 21.2272 1.38664 21.1249 1.38618 21.0226L1.3855 20.7221V3.27806L1.38595 2.97796C1.38642 2.8755 1.38793 2.77304 1.39048 2.67061C1.39546 2.49123 1.4052 2.28173 1.44076 2.08468C1.46662 1.9286 1.51595 1.77733 1.58707 1.63601C1.65593 1.50056 1.74562 1.3769 1.85433 1.26841C1.96208 1.16049 2.08622 1.07029 2.22215 1.00115C2.36345 0.930167 2.51463 0.880844 2.6706 0.854842C2.86652 0.819736 3.07647 0.809997 3.2563 0.805014C3.35868 0.802296 3.46128 0.801164 3.56297 0.800484L3.9428 0.799805H34.7171Z" fill="white"/>
<path d="M10.4397 8.10171C10.7577 7.70422 10.9733 7.17039 10.9164 6.625C10.4512 6.6481 9.88365 6.93189 9.55479 7.32984C9.25967 7.67048 8.99853 8.22651 9.06647 8.74902C9.58876 8.79432 10.1106 8.48811 10.4397 8.10171Z" fill="black"/>
<path d="M10.9106 8.85119C10.1518 8.80589 9.50723 9.28152 9.14507 9.28152C8.78269 9.28152 8.22802 8.87384 7.62804 8.88493C6.84733 8.89626 6.12302 9.33791 5.72666 10.04C4.91175 11.4443 5.5115 13.528 6.30421 14.6717C6.68902 15.238 7.15287 15.8608 7.76394 15.8384C8.34149 15.8158 8.56775 15.4647 9.26942 15.4647C9.97086 15.4647 10.1747 15.8384 10.786 15.8271C11.4197 15.8157 11.8161 15.2608 12.2009 14.6946C12.6425 14.0491 12.823 13.4263 12.8344 13.3923C12.823 13.381 11.6122 12.9165 11.6009 11.5235C11.5896 10.3571 12.5517 9.80222 12.597 9.76802C12.0537 8.96443 11.2048 8.87384 10.9103 8.85119" fill="black"/>
<path d="M18.4721 7.27295C20.1205 7.27295 21.2686 8.40925 21.2686 10.0635C21.2686 11.7237 20.097 12.8659 18.4309 12.8659H16.6059V15.7686H15.2872V7.27295H18.4721ZM16.6059 11.759H18.1188C19.2671 11.759 19.9203 11.1409 19.9203 10.0694C19.9203 8.99812 19.2669 8.38569 18.1247 8.38569H16.6059V11.759Z" fill="black"/>
<path d="M21.5956 14.008C21.5956 12.9188 22.4257 12.2949 23.9563 12.2006L25.5989 12.1005V11.6294C25.5989 10.9409 25.1456 10.564 24.3391 10.564C23.6737 10.564 23.1908 10.9053 23.0912 11.4292H21.9016C21.9372 10.3285 22.9732 9.52783 24.3744 9.52783C25.8815 9.52783 26.8647 10.3167 26.8647 11.5413V15.7683H25.6462V14.7498H25.6167C25.2693 15.415 24.5038 15.8329 23.6737 15.8329C22.4493 15.8329 21.5956 15.1031 21.5956 14.008ZM25.5989 13.4606V12.9836L24.133 13.0778C23.3086 13.1308 22.8792 13.4368 22.8792 13.9725C22.8792 14.4907 23.3265 14.8263 24.027 14.8263C24.9216 14.8263 25.5989 14.2551 25.5989 13.4606Z" fill="black"/>
<path d="M27.9852 18.0408V17.0225C28.0676 17.034 28.2676 17.0458 28.3736 17.0458C28.9564 17.0458 29.2861 16.7989 29.4863 16.1627L29.6041 15.7861L27.3727 9.60449H28.7503L30.3047 14.6203H30.3341L31.8883 9.60449H33.2307L30.9169 16.098C30.3869 17.5876 29.7806 18.0763 28.4973 18.0763C28.3972 18.0763 28.0733 18.0646 27.9852 18.0408Z" fill="black"/>
</svg>
