<svg width="39" height="24" viewBox="0 0 39 24" fill="none" xmlns="http://www.w3.org/2000/svg">
<path opacity="0.07" d="M35.33 0H3.32996C1.62996 0 0.329956 1.3 0.329956 3V21C0.329956 22.7 1.72996 24 3.32996 24H35.33C37.03 24 38.33 22.7 38.33 21V3C38.33 1.3 36.93 0 35.33 0Z" fill="black"/>
<path d="M35.33 1C36.43 1 37.33 1.9 37.33 3V21C37.33 22.1 36.43 23 35.33 23H3.32996C2.22996 23 1.32996 22.1 1.32996 21V3C1.32996 1.9 2.22996 1 3.32996 1H35.33Z" fill="white"/>
<path d="M28.63 10.1H28.33C27.93 11.1 27.63 11.6 27.33 13.1H29.23C28.93 11.6 28.93 10.9 28.63 10.1ZM31.53 16H29.83C29.73 16 29.73 16 29.63 15.9L29.43 15L29.33 14.8H26.93C26.83 14.8 26.73 14.8 26.73 15L26.43 15.9C26.43 16 26.33 16 26.33 16H24.23L24.43 15.5L27.33 8.7C27.33 8.2 27.63 8 28.13 8H29.63C29.73 8 29.83 8 29.83 8.2L31.23 14.7C31.33 15.1 31.43 15.4 31.43 15.8C31.53 15.9 31.53 15.9 31.53 16ZM18.13 15.7L18.53 13.9C18.63 13.9 18.73 14 18.73 14C19.43 14.3 20.13 14.5 20.83 14.4C21.03 14.4 21.33 14.3 21.53 14.2C22.03 14 22.03 13.5 21.63 13.1C21.43 12.9 21.13 12.8 20.83 12.6C20.43 12.4 20.03 12.2 19.73 11.9C18.53 10.9 18.93 9.5 19.63 8.8C20.23 8.4 20.53 8 21.33 8C22.53 8 23.83 8 24.43 8.2H24.53C24.43 8.8 24.33 9.3 24.13 9.9C23.63 9.7 23.13 9.5 22.63 9.5C22.33 9.5 22.03 9.5 21.73 9.6C21.53 9.6 21.43 9.7 21.33 9.8C21.13 10 21.13 10.3 21.33 10.5L21.83 10.9C22.23 11.1 22.63 11.3 22.93 11.5C23.43 11.8 23.93 12.3 24.03 12.9C24.23 13.8 23.93 14.6 23.13 15.2C22.63 15.6 22.43 15.8 21.73 15.8C20.33 15.8 19.23 15.9 18.33 15.6C18.23 15.8 18.23 15.8 18.13 15.7ZM14.63 16C14.73 15.3 14.73 15.3 14.83 15C15.33 12.8 15.83 10.5 16.23 8.3C16.33 8.1 16.33 8 16.53 8H18.33C18.13 9.2 17.93 10.1 17.63 11.2C17.33 12.7 17.03 14.2 16.63 15.7C16.63 15.9 16.53 15.9 16.33 15.9M5.32996 8.2C5.32996 8.1 5.52996 8 5.62996 8H9.02996C9.52996 8 9.92996 8.3 10.03 8.8L10.93 13.2C10.93 13.3 10.93 13.3 11.03 13.4C11.03 13.3 11.13 13.3 11.13 13.3L13.23 8.2C13.13 8.1 13.23 8 13.33 8H15.43C15.43 8.1 15.43 8.1 15.33 8.2L12.23 15.5C12.13 15.7 12.13 15.8 12.03 15.9C11.93 16 11.73 15.9 11.53 15.9H10.03C9.92996 15.9 9.82996 15.9 9.82996 15.7L8.22996 9.5C8.02996 9.3 7.72996 9 7.32996 8.9C6.72996 8.6 5.62996 8.4 5.42996 8.4L5.32996 8.2Z" fill="#142688"/>
</svg>
