<svg width="24" height="24" viewBox="0 0 24 24" fill="none" xmlns="http://www.w3.org/2000/svg">
<mask id="mask0_145_8468" style="mask-type:alpha" maskUnits="userSpaceOnUse" x="0" y="0" width="24" height="24">
<rect width="24" height="24" fill="#D9D9D9"/>
</mask>
<g mask="url(#mask0_145_8468)">
<path d="M19.4853 20.1538L13.2238 13.8923C12.7238 14.318 12.1488 14.6475 11.4988 14.8808C10.8488 15.1141 10.1957 15.2308 9.53934 15.2308C7.93768 15.2308 6.58209 14.6764 5.47259 13.5675C4.36326 12.4587 3.80859 11.104 3.80859 9.50329C3.80859 7.90245 4.36301 6.54654 5.47184 5.43554C6.58068 4.3247 7.93543 3.76929 9.53609 3.76929C11.1369 3.76929 12.4928 4.32395 13.6038 5.43329C14.7147 6.54279 15.2701 7.89837 15.2701 9.50004C15.2701 10.1949 15.147 10.8673 14.9008 11.5173C14.6547 12.1673 14.3316 12.723 13.9316 13.1845L20.1931 19.4463L19.4853 20.1538ZM9.53934 14.2308C10.8662 14.2308 11.9863 13.774 12.8998 12.8605C13.8133 11.9472 14.2701 10.827 14.2701 9.50004C14.2701 8.17304 13.8133 7.05287 12.8998 6.13954C11.9863 5.22604 10.8662 4.76929 9.53934 4.76929C8.21234 4.76929 7.09218 5.22604 6.17884 6.13954C5.26534 7.05287 4.80859 8.17304 4.80859 9.50004C4.80859 10.827 5.26534 11.9472 6.17884 12.8605C7.09218 13.774 8.21234 14.2308 9.53934 14.2308Z" fill="#F9F6E3"/>
</g>
</svg>
