<svg width="20" height="20" viewBox="0 0 20 20" fill="none" xmlns="http://www.w3.org/2000/svg">
<path fill-rule="evenodd" clip-rule="evenodd" d="M17.0334 4.36917C17.8075 4.5725 18.4167 5.17167 18.6242 5.9325C19 7.31083 19 10.1875 19 10.1875C19 10.1875 19 13.0642 18.6242 14.4425C18.5191 14.8197 18.3168 15.1627 18.0375 15.4371C17.7581 15.7114 17.4116 15.9076 17.0325 16.0058C15.6292 16.375 10 16.375 10 16.375C10 16.375 4.37169 16.375 2.96752 16.0058C2.58853 15.9075 2.24201 15.7113 1.96267 15.437C1.68333 15.1626 1.48097 14.8197 1.37585 14.4425C1.00085 13.0642 1.00085 10.1875 1.00085 10.1875C1.00085 10.1875 1.00085 7.31083 1.37585 5.9325C1.4809 5.55529 1.68323 5.21232 1.96258 4.93794C2.24193 4.66356 2.58849 4.46742 2.96752 4.36917C4.37169 4 10.0009 4 10.0009 4C10.0009 4 15.6292 4 17.0325 4.36917H17.0334ZM12.8634 10.1875L8.16002 12.8V7.57583L12.865 10.1875H12.8634Z" fill="#023524"/>
</svg>
